{
    "asset" : {
        "generator" : "Khronos glTF Blender I/O v3.2.43",
        "version" : "2.0"
    },
    "scene" : 0,
    "scenes" : [
        {
            "name" : "Scene",
            "nodes" : [
                0,
                1,
                2,
                3,
                4,
                5,
                6,
                7,
                8
            ]
        }
    ],
    "nodes" : [
        {
            "mesh" : 0,
            "name" : "Cylinder.140",
            "scale" : [
                0.7308879494667053,
                0.0549970306456089,
                0.7308879494667053
            ],
            "translation" : [
                -11.214421272277832,
                13.749715805053711,
                0.10559450834989548
            ]
        },
        {
            "mesh" : 1,
            "name" : "Cylinder.141",
            "scale" : [
                0.19672176241874695,
                0.288320928812027,
                0.19672176241874695
            ],
            "translation" : [
                -11.214421272277832,
                14.080718040466309,
                -0.011896662414073944
            ]
        },
        {
            "mesh" : 2,
            "name" : "Cube.156",
            "scale" : [
                1.3948222398757935,
                0.9333912134170532,
                0.10054340213537216
            ],
            "translation" : [
                -11.214421272277832,
                15.058661460876465,
                0.21765145659446716
            ]
        },
        {
            "mesh" : 3,
            "name" : "Cube.157",
            "scale" : [
                0.03601612523198128,
                0.0076926033943891525,
                0.011142335832118988
            ],
            "translation" : [
                -10.03332233428955,
                14.166435241699219,
                0.36538538336753845
            ]
        },
        {
            "mesh" : 4,
            "name" : "Cube.158",
            "scale" : [
                0.03601612523198128,
                0.0076926033943891525,
                0.011142335832118988
            ],
            "translation" : [
                -10.446667671203613,
                14.166435241699219,
                0.36538538336753845
            ]
        },
        {
            "mesh" : 5,
            "name" : "screen.003",
            "rotation" : [
                0.7071067094802856,
                0,
                0,
                0.7071068286895752
            ],
            "scale" : [
                1.596182107925415,
                1.596182107925415,
                1.596182107925415
            ],
            "translation" : [
                -11.21765422821045,
                15.074782371520996,
                0.3402760922908783
            ]
        },
        {
            "mesh" : 6,
            "name" : "Text.042",
            "rotation" : [
                0.7071067094802856,
                0,
                0,
                0.7071068286895752
            ],
            "scale" : [
                0.077450692653656,
                0.077450692653656,
                0.077450692653656
            ],
            "translation" : [
                -11.232163429260254,
                14.189529418945312,
                0.3654097020626068
            ]
        },
        {
            "mesh" : 7,
            "name" : "Text.043",
            "rotation" : [
                0.7071067094802856,
                0,
                0,
                0.7071068286895752
            ],
            "scale" : [
                0.04532809928059578,
                0.04532809928059578,
                0.04532809928059578
            ],
            "translation" : [
                -12.39987850189209,
                15.919312477111816,
                0.3705538213253021
            ]
        },
        {
            "mesh" : 8,
            "name" : "Text.044",
            "rotation" : [
                0.7071067094802856,
                0,
                0,
                0.7071068286895752
            ],
            "scale" : [
                0.023567358031868935,
                0.023567358031868935,
                0.023567358031868935
            ],
            "translation" : [
                -12.229645729064941,
                15.912479400634766,
                0.36713919043540955
            ]
        }
    ],
    "materials" : [
        {
            "doubleSided" : true,
            "name" : "Material.002",
            "pbrMetallicRoughness" : {
                "baseColorFactor" : [
                    0.018848516047000885,
                    0.018848516047000885,
                    0.018848516047000885,
                    1
                ],
                "metallicFactor" : 0,
                "roughnessFactor" : 0.5
            }
        },
        {
            "doubleSided" : true,
            "emissiveFactor" : [
                0.2571282163262367,
                0.3006228618323803,
                1
            ],
            "name" : "Material.004",
            "pbrMetallicRoughness" : {
                "baseColorFactor" : [
                    0,
                    0,
                    0,
                    1
                ]
            }
        },
        {
            "alphaMode" : "BLEND",
            "doubleSided" : true,
            "emissiveFactor" : [
                1,
                1,
                1
            ],
            "emissiveTexture" : {
                "index" : 0
            },
            "name" : "screen",
            "pbrMetallicRoughness" : {
                "baseColorFactor" : [
                    0,
                    0,
                    0,
                    1
                ]
            }
        }
    ],
    "meshes" : [
        {
            "name" : "Cylinder.140",
            "primitives" : [
                {
                    "attributes" : {
                        "POSITION" : 0,
                        "NORMAL" : 1,
                        "TEXCOORD_0" : 2
                    },
                    "indices" : 3,
                    "material" : 0
                }
            ]
        },
        {
            "name" : "Cylinder.141",
            "primitives" : [
                {
                    "attributes" : {
                        "POSITION" : 4,
                        "NORMAL" : 5,
                        "TEXCOORD_0" : 6
                    },
                    "indices" : 7,
                    "material" : 0
                }
            ]
        },
        {
            "name" : "Cube.154",
            "primitives" : [
                {
                    "attributes" : {
                        "POSITION" : 8,
                        "NORMAL" : 9,
                        "TEXCOORD_0" : 10
                    },
                    "indices" : 11,
                    "material" : 0
                }
            ]
        },
        {
            "name" : "Cube.155",
            "primitives" : [
                {
                    "attributes" : {
                        "POSITION" : 12,
                        "NORMAL" : 13,
                        "TEXCOORD_0" : 14
                    },
                    "indices" : 15,
                    "material" : 1
                }
            ]
        },
        {
            "name" : "Cube.156",
            "primitives" : [
                {
                    "attributes" : {
                        "POSITION" : 16,
                        "NORMAL" : 17,
                        "TEXCOORD_0" : 18
                    },
                    "indices" : 15
                }
            ]
        },
        {
            "name" : "screen.003",
            "primitives" : [
                {
                    "attributes" : {
                        "POSITION" : 19,
                        "NORMAL" : 20,
                        "TEXCOORD_0" : 21
                    },
                    "indices" : 22,
                    "material" : 2
                }
            ]
        },
        {
            "name" : "Text.040",
            "primitives" : [
                {
                    "attributes" : {
                        "POSITION" : 23,
                        "NORMAL" : 24,
                        "TEXCOORD_0" : 25
                    },
                    "indices" : 26
                }
            ]
        },
        {
            "name" : "Text.041",
            "primitives" : [
                {
                    "attributes" : {
                        "POSITION" : 27,
                        "NORMAL" : 28,
                        "TEXCOORD_0" : 29
                    },
                    "indices" : 30
                }
            ]
        },
        {
            "name" : "Text.042",
            "primitives" : [
                {
                    "attributes" : {
                        "POSITION" : 31,
                        "NORMAL" : 32,
                        "TEXCOORD_0" : 33
                    },
                    "indices" : 34
                }
            ]
        }
    ],
    "textures" : [
        {
            "sampler" : 0,
            "source" : 0
        }
    ],
    "images" : [
        {
            "bufferView" : 23,
            "mimeType" : "image/jpeg",
            "name" : "screen"
        }
    ],
    "accessors" : [
        {
            "bufferView" : 0,
            "componentType" : 5126,
            "count" : 130,
            "max" : [
                0.9999999403953552,
                1,
                1
            ],
            "min" : [
                -1.0000001192092896,
                -1,
                -1
            ],
            "type" : "VEC3"
        },
        {
            "bufferView" : 1,
            "componentType" : 5126,
            "count" : 130,
            "type" : "VEC3"
        },
        {
            "bufferView" : 2,
            "componentType" : 5126,
            "count" : 130,
            "type" : "VEC2"
        },
        {
            "bufferView" : 3,
            "componentType" : 5123,
            "count" : 372,
            "type" : "SCALAR"
        },
        {
            "bufferView" : 4,
            "componentType" : 5126,
            "count" : 38,
            "max" : [
                1,
                1,
                0.5972453951835632
            ],
            "min" : [
                -1,
                -1,
                -0.40275466442108154
            ],
            "type" : "VEC3"
        },
        {
            "bufferView" : 5,
            "componentType" : 5126,
            "count" : 38,
            "type" : "VEC3"
        },
        {
            "bufferView" : 6,
            "componentType" : 5126,
            "count" : 38,
            "type" : "VEC2"
        },
        {
            "bufferView" : 7,
            "componentType" : 5123,
            "count" : 192,
            "type" : "SCALAR"
        },
        {
            "bufferView" : 8,
            "componentType" : 5126,
            "count" : 84,
            "max" : [
                1,
                0.990067183971405,
                1.4692494869232178
            ],
            "min" : [
                -1,
                -1.0099327564239502,
                -2.3266043663024902
            ],
            "type" : "VEC3"
        },
        {
            "bufferView" : 9,
            "componentType" : 5126,
            "count" : 84,
            "type" : "VEC3"
        },
        {
            "bufferView" : 10,
            "componentType" : 5126,
            "count" : 84,
            "type" : "VEC2"
        },
        {
            "bufferView" : 11,
            "componentType" : 5123,
            "count" : 126,
            "type" : "SCALAR"
        },
        {
            "bufferView" : 12,
            "componentType" : 5126,
            "count" : 24,
            "max" : [
                1,
                1,
                1
            ],
            "min" : [
                -1,
                -1,
                -1
            ],
            "type" : "VEC3"
        },
        {
            "bufferView" : 13,
            "componentType" : 5126,
            "count" : 24,
            "type" : "VEC3"
        },
        {
            "bufferView" : 14,
            "componentType" : 5126,
            "count" : 24,
            "type" : "VEC2"
        },
        {
            "bufferView" : 15,
            "componentType" : 5123,
            "count" : 36,
            "type" : "SCALAR"
        },
        {
            "bufferView" : 16,
            "componentType" : 5126,
            "count" : 24,
            "max" : [
                1,
                1,
                1
            ],
            "min" : [
                -1,
                -1,
                -1
            ],
            "type" : "VEC3"
        },
        {
            "bufferView" : 17,
            "componentType" : 5126,
            "count" : 24,
            "type" : "VEC3"
        },
        {
            "bufferView" : 18,
            "componentType" : 5126,
            "count" : 24,
            "type" : "VEC2"
        },
        {
            "bufferView" : 19,
            "componentType" : 5126,
            "count" : 4,
            "max" : [
                0.800000011920929,
                0,
                0.5
            ],
            "min" : [
                -0.800000011920929,
                0,
                -0.5
            ],
            "type" : "VEC3"
        },
        {
            "bufferView" : 20,
            "componentType" : 5126,
            "count" : 4,
            "type" : "VEC3"
        },
        {
            "bufferView" : 21,
            "componentType" : 5126,
            "count" : 4,
            "type" : "VEC2"
        },
        {
            "bufferView" : 22,
            "componentType" : 5123,
            "count" : 6,
            "type" : "SCALAR"
        },
        {
            "bufferView" : 24,
            "componentType" : 5126,
            "count" : 333,
            "max" : [
                0.9675000309944153,
                0,
                0.4620000123977661
            ],
            "min" : [
                -0.9675000905990601,
                0,
                -0.4620000123977661
            ],
            "type" : "VEC3"
        },
        {
            "bufferView" : 25,
            "componentType" : 5126,
            "count" : 333,
            "type" : "VEC3"
        },
        {
            "bufferView" : 26,
            "componentType" : 5126,
            "count" : 333,
            "type" : "VEC2"
        },
        {
            "bufferView" : 27,
            "componentType" : 5123,
            "count" : 771,
            "type" : "SCALAR"
        },
        {
            "bufferView" : 28,
            "componentType" : 5126,
            "count" : 311,
            "max" : [
                2.143500328063965,
                0,
                0.3500000238418579
            ],
            "min" : [
                -2.1434998512268066,
                0,
                -0.3500000238418579
            ],
            "type" : "VEC3"
        },
        {
            "bufferView" : 29,
            "componentType" : 5126,
            "count" : 311,
            "type" : "VEC3"
        },
        {
            "bufferView" : 30,
            "componentType" : 5126,
            "count" : 311,
            "type" : "VEC2"
        },
        {
            "bufferView" : 31,
            "componentType" : 5123,
            "count" : 681,
            "type" : "SCALAR"
        },
        {
            "bufferView" : 32,
            "componentType" : 5126,
            "count" : 419,
            "max" : [
                2.058500051498413,
                0,
                0.3485000431537628
            ],
            "min" : [
                -2.058500051498413,
                0,
                -0.34850001335144043
            ],
            "type" : "VEC3"
        },
        {
            "bufferView" : 33,
            "componentType" : 5126,
            "count" : 419,
            "type" : "VEC3"
        },
        {
            "bufferView" : 34,
            "componentType" : 5126,
            "count" : 419,
            "type" : "VEC2"
        },
        {
            "bufferView" : 35,
            "componentType" : 5123,
            "count" : 909,
            "type" : "SCALAR"
        }
    ],
    "bufferViews" : [
        {
            "buffer" : 0,
            "byteLength" : 1560,
            "byteOffset" : 0
        },
        {
            "buffer" : 0,
            "byteLength" : 1560,
            "byteOffset" : 1560
        },
        {
            "buffer" : 0,
            "byteLength" : 1040,
            "byteOffset" : 3120
        },
        {
            "buffer" : 0,
            "byteLength" : 744,
            "byteOffset" : 4160
        },
        {
            "buffer" : 0,
            "byteLength" : 456,
            "byteOffset" : 4904
        },
        {
            "buffer" : 0,
            "byteLength" : 456,
            "byteOffset" : 5360
        },
        {
            "buffer" : 0,
            "byteLength" : 304,
            "byteOffset" : 5816
        },
        {
            "buffer" : 0,
            "byteLength" : 384,
            "byteOffset" : 6120
        },
        {
            "buffer" : 0,
            "byteLength" : 1008,
            "byteOffset" : 6504
        },
        {
            "buffer" : 0,
            "byteLength" : 1008,
            "byteOffset" : 7512
        },
        {
            "buffer" : 0,
            "byteLength" : 672,
            "byteOffset" : 8520
        },
        {
            "buffer" : 0,
            "byteLength" : 252,
            "byteOffset" : 9192
        },
        {
            "buffer" : 0,
            "byteLength" : 288,
            "byteOffset" : 9444
        },
        {
            "buffer" : 0,
            "byteLength" : 288,
            "byteOffset" : 9732
        },
        {
            "buffer" : 0,
            "byteLength" : 192,
            "byteOffset" : 10020
        },
        {
            "buffer" : 0,
            "byteLength" : 72,
            "byteOffset" : 10212
        },
        {
            "buffer" : 0,
            "byteLength" : 288,
            "byteOffset" : 10284
        },
        {
            "buffer" : 0,
            "byteLength" : 288,
            "byteOffset" : 10572
        },
        {
            "buffer" : 0,
            "byteLength" : 192,
            "byteOffset" : 10860
        },
        {
            "buffer" : 0,
            "byteLength" : 48,
            "byteOffset" : 11052
        },
        {
            "buffer" : 0,
            "byteLength" : 48,
            "byteOffset" : 11100
        },
        {
            "buffer" : 0,
            "byteLength" : 32,
            "byteOffset" : 11148
        },
        {
            "buffer" : 0,
            "byteLength" : 12,
            "byteOffset" : 11180
        },
        {
            "buffer" : 0,
            "byteLength" : 245849,
            "byteOffset" : 11192
        },
        {
            "buffer" : 0,
            "byteLength" : 3996,
            "byteOffset" : 257044
        },
        {
            "buffer" : 0,
            "byteLength" : 3996,
            "byteOffset" : 261040
        },
        {
            "buffer" : 0,
            "byteLength" : 2664,
            "byteOffset" : 265036
        },
        {
            "buffer" : 0,
            "byteLength" : 1542,
            "byteOffset" : 267700
        },
        {
            "buffer" : 0,
            "byteLength" : 3732,
            "byteOffset" : 269244
        },
        {
            "buffer" : 0,
            "byteLength" : 3732,
            "byteOffset" : 272976
        },
        {
            "buffer" : 0,
            "byteLength" : 2488,
            "byteOffset" : 276708
        },
        {
            "buffer" : 0,
            "byteLength" : 1362,
            "byteOffset" : 279196
        },
        {
            "buffer" : 0,
            "byteLength" : 5028,
            "byteOffset" : 280560
        },
        {
            "buffer" : 0,
            "byteLength" : 5028,
            "byteOffset" : 285588
        },
        {
            "buffer" : 0,
            "byteLength" : 3352,
            "byteOffset" : 290616
        },
        {
            "buffer" : 0,
            "byteLength" : 1818,
            "byteOffset" : 293968
        }
    ],
    "samplers" : [
        {
            "magFilter" : 9729,
            "minFilter" : 9987,
            "wrapS" : 33071,
            "wrapT" : 33071
        }
    ],
    "buffers" : [
        {
            "byteLength" : 295788,
            "uri" : "data:application/octet-stream;base64,"
        }
    ]
}
