{
    "asset" : {
        "generator" : "Khronos glTF Blender I/O v3.2.43",
        "version" : "2.0"
    },
    "scene" : 0,
    "scenes" : [
        {
            "name" : "Scene",
            "nodes" : [
                0,
                1,
                2,
                3,
                4
            ]
        }
    ],
    "nodes" : [
        {
            "mesh" : 0,
            "name" : "Cylinder"
        },
        {
            "mesh" : 1,
            "name" : "Cylinder.002"
        },
        {
            "mesh" : 2,
            "name" : "Cylinder.003"
        },
        {
            "mesh" : 3,
            "name" : "Circle"
        },
        {
            "mesh" : 4,
            "name" : "Cylinder.001"
        }
    ],
    "materials" : [
        {
            "doubleSided" : true,
            "name" : "Material.003",
            "pbrMetallicRoughness" : {
                "baseColorTexture" : {
                    "index" : 0
                },
                "metallicFactor" : 0,
                "roughnessFactor" : 0.5
            }
        },
        {
            "doubleSided" : true,
            "name" : "Material.001",
            "pbrMetallicRoughness" : {
                "baseColorFactor" : [
                    0,
                    0,
                    0,
                    1
                ],
                "metallicFactor" : 0,
                "roughnessFactor" : 0.5
            }
        },
        {
            "doubleSided" : true,
            "name" : "Material.004",
            "pbrMetallicRoughness" : {
                "baseColorFactor" : [
                    0.1237088218331337,
                    0.10377217084169388,
                    0.0412478893995285,
                    1
                ],
                "metallicFactor" : 0,
                "roughnessFactor" : 0.5
            }
        },
        {
            "doubleSided" : true,
            "name" : "Material.002",
            "pbrMetallicRoughness" : {
                "baseColorTexture" : {
                    "index" : 1
                },
                "metallicFactor" : 0,
                "roughnessFactor" : 0.5
            }
        }
    ],
    "meshes" : [
        {
            "name" : "Cylinder",
            "primitives" : [
                {
                    "attributes" : {
                        "POSITION" : 0,
                        "NORMAL" : 1,
                        "TEXCOORD_0" : 2
                    },
                    "indices" : 3,
                    "material" : 0
                }
            ]
        },
        {
            "name" : "Cylinder.006",
            "primitives" : [
                {
                    "attributes" : {
                        "POSITION" : 4,
                        "NORMAL" : 5,
                        "TEXCOORD_0" : 6
                    },
                    "indices" : 7,
                    "material" : 1
                }
            ]
        },
        {
            "name" : "Cylinder.015",
            "primitives" : [
                {
                    "attributes" : {
                        "POSITION" : 8,
                        "NORMAL" : 9,
                        "TEXCOORD_0" : 10
                    },
                    "indices" : 11,
                    "material" : 1
                }
            ]
        },
        {
            "name" : "Circle",
            "primitives" : [
                {
                    "attributes" : {
                        "POSITION" : 12,
                        "NORMAL" : 13,
                        "TEXCOORD_0" : 14
                    },
                    "indices" : 15,
                    "material" : 2
                }
            ]
        },
        {
            "name" : "Cylinder.021",
            "primitives" : [
                {
                    "attributes" : {
                        "POSITION" : 16,
                        "NORMAL" : 17,
                        "TEXCOORD_0" : 18
                    },
                    "indices" : 19,
                    "material" : 3
                }
            ]
        }
    ],
    "textures" : [
        {
            "sampler" : 0,
            "source" : 0
        },
        {
            "sampler" : 0,
            "source" : 0
        }
    ],
    "images" : [
        {
            "bufferView" : 4,
            "mimeType" : "image/jpeg",
            "name" : "battery_blueberry jpeg"
        }
    ],
    "accessors" : [
        {
            "bufferView" : 0,
            "componentType" : 5126,
            "count" : 128,
            "max" : [
                0.0319746769964695,
                0.11096489429473877,
                0.03188882768154144
            ],
            "min" : [
                -0.031851254403591156,
                0.10348457843065262,
                -0.03193717449903488
            ],
            "type" : "VEC3"
        },
        {
            "bufferView" : 1,
            "componentType" : 5126,
            "count" : 128,
            "type" : "VEC3"
        },
        {
            "bufferView" : 2,
            "componentType" : 5126,
            "count" : 128,
            "type" : "VEC2"
        },
        {
            "bufferView" : 3,
            "componentType" : 5123,
            "count" : 192,
            "type" : "SCALAR"
        },
        {
            "bufferView" : 5,
            "componentType" : 5126,
            "count" : 946,
            "max" : [
                0.027386754751205444,
                0.11363783478736877,
                0.027300959452986717
            ],
            "min" : [
                -0.027263691648840904,
                0.11112751066684723,
                -0.027349436655640602
            ],
            "type" : "VEC3"
        },
        {
            "bufferView" : 6,
            "componentType" : 5126,
            "count" : 946,
            "type" : "VEC3"
        },
        {
            "bufferView" : 7,
            "componentType" : 5126,
            "count" : 946,
            "type" : "VEC2"
        },
        {
            "bufferView" : 8,
            "componentType" : 5123,
            "count" : 1914,
            "type" : "SCALAR"
        },
        {
            "bufferView" : 9,
            "componentType" : 5126,
            "count" : 716,
            "max" : [
                0.031974636018276215,
                0.009790988638997078,
                0.03188882768154144
            ],
            "min" : [
                -0.03185129538178444,
                0.0008326687384396791,
                -0.031937126070261
            ],
            "type" : "VEC3"
        },
        {
            "bufferView" : 10,
            "componentType" : 5126,
            "count" : 716,
            "type" : "VEC3"
        },
        {
            "bufferView" : 11,
            "componentType" : 5126,
            "count" : 716,
            "type" : "VEC2"
        },
        {
            "bufferView" : 12,
            "componentType" : 5123,
            "count" : 1056,
            "type" : "SCALAR"
        },
        {
            "bufferView" : 13,
            "componentType" : 5126,
            "count" : 928,
            "max" : [
                -0.0013867532834410667,
                0.11941587924957275,
                0.005265170242637396
            ],
            "min" : [
                -0.012884366326034069,
                0.10801396518945694,
                -0.004834841471165419
            ],
            "type" : "VEC3"
        },
        {
            "bufferView" : 14,
            "componentType" : 5126,
            "count" : 928,
            "type" : "VEC3"
        },
        {
            "bufferView" : 15,
            "componentType" : 5126,
            "count" : 928,
            "type" : "VEC2"
        },
        {
            "bufferView" : 16,
            "componentType" : 5123,
            "count" : 1824,
            "type" : "SCALAR"
        },
        {
            "bufferView" : 17,
            "componentType" : 5126,
            "count" : 128,
            "max" : [
                0.03197462484240532,
                0.10348470509052277,
                0.031888820230960846
            ],
            "min" : [
                -0.031851302832365036,
                0.007630534470081329,
                -0.0319371335208416
            ],
            "type" : "VEC3"
        },
        {
            "bufferView" : 18,
            "componentType" : 5126,
            "count" : 128,
            "type" : "VEC3"
        },
        {
            "bufferView" : 19,
            "componentType" : 5126,
            "count" : 128,
            "type" : "VEC2"
        },
        {
            "bufferView" : 20,
            "componentType" : 5123,
            "count" : 192,
            "type" : "SCALAR"
        }
    ],
    "bufferViews" : [
        {
            "buffer" : 0,
            "byteLength" : 1536,
            "byteOffset" : 0
        },
        {
            "buffer" : 0,
            "byteLength" : 1536,
            "byteOffset" : 1536
        },
        {
            "buffer" : 0,
            "byteLength" : 1024,
            "byteOffset" : 3072
        },
        {
            "buffer" : 0,
            "byteLength" : 384,
            "byteOffset" : 4096
        },
        {
            "buffer" : 0,
            "byteLength" : 36173,
            "byteOffset" : 4480
        },
        {
            "buffer" : 0,
            "byteLength" : 11352,
            "byteOffset" : 40656
        },
        {
            "buffer" : 0,
            "byteLength" : 11352,
            "byteOffset" : 52008
        },
        {
            "buffer" : 0,
            "byteLength" : 7568,
            "byteOffset" : 63360
        },
        {
            "buffer" : 0,
            "byteLength" : 3828,
            "byteOffset" : 70928
        },
        {
            "buffer" : 0,
            "byteLength" : 8592,
            "byteOffset" : 74756
        },
        {
            "buffer" : 0,
            "byteLength" : 8592,
            "byteOffset" : 83348
        },
        {
            "buffer" : 0,
            "byteLength" : 5728,
            "byteOffset" : 91940
        },
        {
            "buffer" : 0,
            "byteLength" : 2112,
            "byteOffset" : 97668
        },
        {
            "buffer" : 0,
            "byteLength" : 11136,
            "byteOffset" : 99780
        },
        {
            "buffer" : 0,
            "byteLength" : 11136,
            "byteOffset" : 110916
        },
        {
            "buffer" : 0,
            "byteLength" : 7424,
            "byteOffset" : 122052
        },
        {
            "buffer" : 0,
            "byteLength" : 3648,
            "byteOffset" : 129476
        },
        {
            "buffer" : 0,
            "byteLength" : 1536,
            "byteOffset" : 133124
        },
        {
            "buffer" : 0,
            "byteLength" : 1536,
            "byteOffset" : 134660
        },
        {
            "buffer" : 0,
            "byteLength" : 1024,
            "byteOffset" : 136196
        },
        {
            "buffer" : 0,
            "byteLength" : 384,
            "byteOffset" : 137220
        }
    ],
    "samplers" : [
        {
            "magFilter" : 9729,
            "minFilter" : 9987
        }
    ],
    "buffers" : [
        {
            "byteLength" : 137604,
            "uri" : "data:application/octet-stream;base64,"
        }
    ]
}
